<svg id="Capa_1" enable-background="new 0 0 512.011 512.011" height="512" viewBox="0 0 512.011 512.011" width="512" xmlns="http://www.w3.org/2000/svg"><g><path d="m126 121.005c0 22.056 17.944 40 40 40s40-17.944 40-40-17.944-40-40-40-40 17.945-40 40zm60 0c0 11.028-8.972 20-20 20s-20-8.972-20-20 8.972-20 20-20 20 8.972 20 20z"/><path d="m66 121.005c0 55.141 44.859 100 100 100 39.906 0 75.889-23.835 91.679-60h184.321c1.553 0 3.084-.361 4.472-1.056l60-30c2.876-1.438 4.885-4.17 5.399-7.343s-.527-6.399-2.8-8.673l-60-60c-3.906-3.904-10.236-3.904-14.143 0l-22.928 22.93-22.929-22.929c-3.906-3.904-10.236-3.904-14.143 0l-22.928 22.929-22.929-22.929c-3.906-3.904-10.236-3.904-14.143 0l-27.071 27.071h-30.179c-15.79-36.165-51.772-60-91.679-60-55.14 0-99.999 44.86-99.999 100zm175.452-26.667c1.412 3.996 5.189 6.667 9.428 6.667h41.12c2.652 0 5.195-1.054 7.071-2.929l22.929-22.928 22.929 22.929c3.906 3.904 10.236 3.904 14.143 0l22.928-22.929 22.929 22.929c3.906 3.904 10.236 3.904 14.143 0l22.928-22.929 43.118 43.118-45.479 22.739h-188.759c-4.238 0-8.016 2.671-9.428 6.667-11.279 31.9-41.601 53.333-75.452 53.333-44.112 0-80-35.888-80-80s35.888-80 80-80c33.852 0 64.173 21.433 75.452 53.333z"/><circle cx="392" cy="403.005" r="10"/><path d="m414.471 298.413-57.242 37.987c-6.951-12.232-20.113-20.395-34.789-20.395h-48.68c-4.952 0-9.646-1.729-13.217-4.87l-7.046-6.195c-37.655-33.147-94.456-33.15-132.121-.003l-15.142 13.319-26.234 18.545v-5.795c0-5.522-4.478-10-10-10h-60c-5.522 0-10 4.478-10 10v150c0 5.522 4.478 10 10 10h60c5.522 0 10-4.478 10-10v-25h31.442l172.581 34.803c.656.132 1.317.197 1.977.197 2.114 0 4.194-.671 5.926-1.944l69.777-51.326c4.448-3.272 5.402-9.532 2.13-13.981-3.272-4.448-9.531-5.401-13.981-2.13l-66.212 48.704-169.223-34.125c-.65-.131-1.313-.197-1.977-.197h-32.44v-74.712c42.72-30.223 35.384-24.054 54.587-41.341 30.133-26.518 75.571-26.519 105.7.003l7.048 6.197c7.223 6.354 16.606 9.853 26.425 9.853h48.681c10.989 0 20 9.091 20 20.11 0 10.967-8.972 19.89-20 19.89h-120c-5.522 0-10 4.478-10 10s4.478 10 10 10h120c21.772 0 39.525-17.44 39.979-39.046l63.08-41.861c19.826-13.055 45.323-10.359 61.895 5.355l-65.068 47.861c-4.448 3.272-5.402 9.532-2.13 13.981 3.272 4.448 9.53 5.403 13.981 2.13l73.759-54.255c4.397-3.235 5.388-9.398 2.226-13.849-21.968-30.909-63.986-38.785-95.692-17.91zm-354.471 172.592h-40v-130h40z"/></g></svg>