<svg id="Icons" height="512" viewBox="0 0 74 74" width="512" xmlns="http://www.w3.org/2000/svg"><path d="m69 72h-64a1 1 0 0 1 0-2h64a1 1 0 0 1 0 2z"/><path d="m64 43.47a1 1 0 0 1 -1-1v-2.91a1 1 0 0 1 2 0v2.91a1 1 0 0 1 -1 1z"/><path d="m64 72h-26.35a1 1 0 0 1 -1-1v-48a1 1 0 0 1 1-1h26.35a1 1 0 0 1 1 1v9.56a1 1 0 0 1 -2 0v-8.56h-24.35v46h24.35v-10.56a1 1 0 0 1 2 0v11.56a1 1 0 0 1 -1 1z"/><path d="m64 53.44a1 1 0 0 1 -1-1v-2.97a1 1 0 0 1 2 0v2.97a1 1 0 0 1 -1 1z"/><path d="m59.294 31.529h-16.941a1 1 0 0 1 0-2h16.941a1 1 0 0 1 0 2z"/><path d="m59.294 38.118h-16.941a1 1 0 0 1 0-2h16.941a1 1 0 0 1 0 2z"/><path d="m59.294 44.706h-16.941a1 1 0 1 1 0-2h16.941a1 1 0 0 1 0 2z"/><path d="m59.294 51.294h-16.941a1 1 0 1 1 0-2h16.941a1 1 0 0 1 0 2z"/><path d="m56.941 72h-11.294a1 1 0 0 1 -1-1v-13.176a1 1 0 0 1 1-1h11.294a1 1 0 0 1 1 1v13.176a1 1 0 0 1 -1 1zm-10.294-2h9.294v-11.176h-9.294z"/><path d="m25.059 72h-15.059a1 1 0 0 1 -1-1v-48a1 1 0 0 1 1-1h15.059a1 1 0 0 1 1 1v48a1 1 0 0 1 -1 1zm-14.059-2h13.059v-46h-13.059z"/><path d="m20.708 32h-6.416a1 1 0 0 1 0-2h6.416a1 1 0 0 1 0 2z"/><path d="m20.708 38.4h-6.416a1 1 0 0 1 0-2h6.416a1 1 0 0 1 0 2z"/><path d="m20.708 44.8h-6.416a1 1 0 0 1 0-2h6.416a1 1 0 0 1 0 2z"/><path d="m20.708 51.2h-6.416a1 1 0 0 1 0-2h6.416a1 1 0 0 1 0 2z"/><path d="m20.708 57.6h-6.416a1 1 0 1 1 0-2h6.416a1 1 0 0 1 0 2z"/><path d="m20.708 64h-6.416a1 1 0 0 1 0-2h6.416a1 1 0 0 1 0 2z"/><path d="m47 24a1 1 0 0 1 -1-1v-19h-27v19a1 1 0 0 1 -2 0v-20a1 1 0 0 1 1-1h29a1 1 0 0 1 1 1v20a1 1 0 0 1 -1 1z"/><path d="m41.583 11h-18.166a1 1 0 0 1 0-2h18.166a1 1 0 0 1 0 2z"/><path d="m41.583 16.792h-18.166a1 1 0 1 1 0-2h18.166a1 1 0 0 1 0 2z"/></svg>