<svg id="Layer_2" data-name="Layer 2" xmlns="http://www.w3.org/2000/svg" xmlns:xlink="http://www.w3.org/1999/xlink" viewBox="0 0 400 300" width="406" height="306" class="illustration styles_illustrationTablet__1DWOa"><defs><linearGradient id="linear-gradient" x1="295.34" y1="178.88" x2="278.19" y2="201.55" gradientUnits="userSpaceOnUse"><stop offset="0" stop-color="#36597c"></stop><stop offset="1" stop-color="#87a7d6"></stop></linearGradient><linearGradient id="linear-gradient-2" x1="210.85" y1="216.58" x2="185.34" y2="250.29" xlink:href="#linear-gradient"></linearGradient><linearGradient id="linear-gradient-3" x1="187.28" y1="136.41" x2="161.77" y2="170.12" xlink:href="#linear-gradient"></linearGradient><linearGradient id="linear-gradient-4" x1="116.41" y1="184.97" x2="90.91" y2="218.68" xlink:href="#linear-gradient"></linearGradient><linearGradient id="linear-gradient-5" x1="106.97" y1="205.08" x2="150.83" y2="130.1" gradientUnits="userSpaceOnUse"><stop offset="0" stop-color="#ffdb7b"></stop><stop offset="0.23" stop-color="#da2e81"></stop><stop offset="0.59" stop-color="#9736bb"></stop><stop offset="1" stop-color="#4e62d4"></stop></linearGradient><linearGradient id="linear-gradient-6" x1="96.85" y1="148.7" x2="201.18" y2="158.25" xlink:href="#linear-gradient-5"></linearGradient><linearGradient id="linear-gradient-7" x1="122.89" y1="214.39" x2="166.75" y2="139.42" xlink:href="#linear-gradient-5"></linearGradient></defs><title>aaa</title><path d="M196.69,279.77,345.9,191.58c4.75-2.67,8.83-7,4.19-9.92L200.35,95.36c-2.25-1.39-5.66-2.3-7.94-1L35.77,185.29c-4.75,2.76-5.6,10.46-.85,13.22L177,279.63A19.84,19.84,0,0,0,196.69,279.77Z" fill="#87a7d6"></path><polyline points="286.48 178.29 255.1 196.19 279.13 210.29 314.89 188.92" fill="url(#linear-gradient)"></polyline><polyline points="197.67 215.69 151 242.32 186.75 263.29 239.92 231.51" fill="url(#linear-gradient-2)"></polyline><polyline points="174.1 135.52 127.43 162.15 163.18 183.11 216.35 151.34" fill="url(#linear-gradient-3)"></polyline><polyline points="103.23 184.09 56.57 210.72 92.31 231.68 145.49 199.91" fill="url(#linear-gradient-4)"></polyline><line x1="107.67" y1="143.49" x2="214.74" y2="205.31" fill="none" stroke="#f2f2f2" stroke-miterlimit="10"></line><polyline points="137.27 203.18 161.18 216.97 210.34 188.46 261.33 171.31 270.06 166.04 237.72 147.57 226.1 154.7 214.74 148.51" fill="none" stroke="#f2f2f2" stroke-miterlimit="10"></polyline><path d="M284.11,151.75v34s32.68,1.82,32.68,0v-34" fill="#68e1fd"></path><ellipse cx="300.45" cy="185.46" rx="16.34" ry="7.46" fill="#68e1fd"></ellipse><ellipse cx="300.45" cy="151.75" rx="16.34" ry="7.46" fill="#3129a3"></ellipse><path d="M290.26,157.55l.11.06c.63.22,1.26.42,1.91.58L287.84,121a2.23,2.23,0,0,0-2.28.42l4.56,36.1Z" fill="#f78b72"></path><path d="M295.34,158.7l1.38-34.95a2.23,2.23,0,0,0-2.31.06l-1.13,34.6A18.31,18.31,0,0,0,295.34,158.7Z" fill="#f78b72"></path><path d="M300.45,159.21l4.49-36.44,9.09,4.81-3.68,30.61A27.8,27.8,0,0,1,300.45,159.21Z" fill="#fcb749"></path><polyline points="199.84 175.55 199.84 217.55 232.6 236.29 269.59 214.43 269.59 172.43" fill="#68e1fd"></polyline><polygon points="199.84 175.55 237.85 153.9 269.59 172.43 232.6 194.29 199.84 175.55" fill="#68e1fd"></polygon><polygon points="232.6 194.29 232.6 236.29 269.59 214.43 269.59 172.43 232.6 194.29" fill="#68e1fd"></polygon><polyline points="199.84 175.55 199.84 217.55 232.6 236.29 269.59 214.43 269.59 172.43" fill="#2e2e75" opacity="0.17"></polyline><polygon points="199.84 175.55 237.85 153.9 269.59 172.43 232.6 194.29 199.84 175.55" fill="#68e1fd"></polygon><polygon points="232.6 194.29 232.6 236.29 269.59 214.43 269.59 172.43 232.6 194.29" fill="#2e2e75" opacity="0.33"></polygon><path d="M224.93,168.22c1.38-.55,2.75-1.07,4.11-1.6a1,1,0,0,1,.81,0l3.1,1.3c.29.12.29.21,0,.32l-.06,0-2,.79-.07,0c-.72.3-.69.61.07.94L233,171l.42-.14,2.77-1.07a.92.92,0,0,1,.93,0l2.82,1.4c.23.11.2.21,0,.3l-2.54,1-.41.16.45.19,10.44,4.39c.42.18.48.22.16.36l-.16.06-3.73,1.44a1,1,0,0,1-1,0l-10.4-4.37-.47-.2-1.83.7a1.06,1.06,0,0,1-1.09,0l-2.93-1.23c-.37-.16-.4-.21-.08-.34l.09,0,1.9-.73-.42-.17c-1.06-.46-2.19-.89-3.18-1.37C222.88,170.38,223,169,224.93,168.22Z" fill="#fff"></path><polyline points="92.31 152.87 92.31 193.93 124.33 212.24 160.48 190.88 160.48 149.82" fill="url(#linear-gradient-5)"></polyline><polygon points="92.31 152.87 129.46 131.71 160.48 149.82 124.33 171.19 92.31 152.87" fill="url(#linear-gradient-6)"></polygon><polygon points="124.33 171.19 124.33 212.24 160.48 190.88 160.48 149.82 124.33 171.19" fill="url(#linear-gradient-7)"></polygon><g style="isolation: isolate;"><path d="M125.41,145.14a2.22,2.22,0,0,1,2,0c.6.32.68.87.16,1.19a2.19,2.19,0,0,1-2,0C124.93,146,124.89,145.46,125.41,145.14Z" fill="#fff"></path><path d="M122,148.48a9.59,9.59,0,0,1,8.77,0c2.55,1.4,2.79,3.7.55,5.1a9.68,9.68,0,0,1-8.81,0C119.94,152.15,119.71,149.88,122,148.48Zm7.37,4c1.29-.82,1.12-2.14-.36-2.94a5.59,5.59,0,0,0-5,0c-1.3.81-1.16,2.13.31,2.94a5.52,5.52,0,0,0,5.06,0l0,0" fill="#fff"></path><path d="M130.2,143.3c3.06,1.53,6,3.14,8.85,4.82s2.92,3.89.3,5.64c-.43.28-.86.56-1.31.84L135.8,156l-2,1.27-1.36.83a10.35,10.35,0,0,1-9.86.31,98.93,98.93,0,0,1-8.84-4.83c-2.68-1.64-2.79-3.4-.48-5.2a44.31,44.31,0,0,1,3.84-2.68,45.73,45.73,0,0,1,4.58-2.5A9.78,9.78,0,0,1,130.2,143.3Zm6.75,5.65c-2.55-1.46-5.16-2.89-7.83-4.28a6.07,6.07,0,0,0-6.29,0c-.49.27-1,.56-1.42.84l-2.2,1.39-2.11,1.3-1.38.88a5,5,0,0,0-1,.88c-.74.86-.6,1.74.61,2.44q4.44,2.54,9.1,5a5.34,5.34,0,0,0,4.27.17,10,10,0,0,0,1.8-.84l2.79-1.72,3.35-2.1a7.66,7.66,0,0,0,.9-.68c1.35-1.19,1.21-2.19-.63-3.25" fill="#fff"></path></g><path d="M174.76,234.3a4.58,4.58,0,0,1,.61,1.18,8.59,8.59,0,0,1,.17,1,.32.32,0,0,0,.21.2q5.93,2.08,7.61,5.68a4.92,4.92,0,0,1-1,5.6,12.38,12.38,0,0,1-2.3,2.07,22.48,22.48,0,0,1-8.07,3.28l-.19,0q.48-.28.89-.57c1.78-1.25,2.67-2.64,2.65-4.22a11.2,11.2,0,0,1-7.27,1.23,8.25,8.25,0,0,0,.83-.51,3.38,3.38,0,0,0,.76-.7c-.48.16-.95.34-1.47.47a11.87,11.87,0,0,1-1.68.3,12.67,12.67,0,0,1-1.79.07,12.07,12.07,0,0,1-1.71-.17,13.61,13.61,0,0,1-1.56-.4,8.89,8.89,0,0,0,2.34-1,12.1,12.1,0,0,1-5.44-.17,5.09,5.09,0,0,1-2.68-1.51c5.41-.28,9.88-1.48,13.44-3.65-.34-.09-.65-.17-1-.27-2.17-.72-3.14-1.76-2.92-3.1a2.65,2.65,0,0,1,1.21-1.62,8.82,8.82,0,0,1,4.06-1.36A1.07,1.07,0,0,0,171,236a.55.55,0,0,0,.12-.11,4.9,4.9,0,0,0,1-2,2.57,2.57,0,0,1,1.28,2.16c.17-.18.35-.36.51-.54a6,6,0,0,0,.45-.6C174.53,234.69,174.64,234.49,174.76,234.3Z" fill="#fff"></path><polyline points="90.27 137.61 88.73 137.1 86.69 133.56 88.76 133.33" fill="#e03636"></polyline><path d="M77.78,116.5l.36,18.91a1.21,1.21,0,0,0,1.75,1l16.35-8a1.57,1.57,0,0,0,.89-1.44l-.36-18.92a1.31,1.31,0,0,0-1.9-1.12l-16.21,8.11A1.57,1.57,0,0,0,77.78,116.5Z" fill="#e03636"></path><polygon points="97.66 107.72 95.76 106.86 95.76 108.28 97.66 107.72" fill="#e03636"></polygon><polygon points="80.23 137.1 78.85 136.48 79.85 135.83 80.23 137.1" fill="#e03636"></polygon><path d="M79.39,117.26l.36,18.91a1.21,1.21,0,0,0,1.75,1l16.35-8a1.57,1.57,0,0,0,.89-1.44l-.36-18.92a1.31,1.31,0,0,0-1.9-1.12l-16.21,8.11A1.57,1.57,0,0,0,79.39,117.26Z" fill="#ff5454"></path><polyline points="93.62 130.03 90.27 137.61 87.29 132.3" fill="#ff5454"></polyline><path d="M92.11,115.5a1.53,1.53,0,0,1,2.35,1.17c.28,1.56-.37,3.55-1,5.22a53.16,53.16,0,0,1-2.31,5.19c-.08.16-1.14,2.34-1.28,2.41s-.32-.16-.44-.22c-.37-.2-.73-.42-1.08-.65A8.41,8.41,0,0,1,85,125.05a5,5,0,0,1,.38-5.42,3.4,3.4,0,0,1,1-.86,2,2,0,0,1,2-.07,3.44,3.44,0,0,1,1.18,2.09,12,12,0,0,1,1.29-4.09A3.08,3.08,0,0,1,92.11,115.5Z" fill="#fff"></path><polyline points="111.88 94.4 110.34 93.89 108.3 90.35 110.37 90.13" fill="#e03636"></polyline><path d="M99.39,73.3l.36,18.91a1.21,1.21,0,0,0,1.75,1l16.35-8a1.57,1.57,0,0,0,.89-1.44l-.36-18.92a1.31,1.31,0,0,0-1.9-1.12l-16.21,8.11A1.57,1.57,0,0,0,99.39,73.3Z" fill="#e03636"></path><polygon points="119.27 64.51 117.37 63.65 117.37 65.08 119.27 64.51" fill="#e03636"></polygon><polygon points="101.84 93.89 100.46 93.28 101.47 92.62 101.84 93.89" fill="#e03636"></polygon><path d="M101,74.06,101.36,93a1.21,1.21,0,0,0,1.75,1l16.35-8a1.57,1.57,0,0,0,.89-1.44L120,65.63a1.31,1.31,0,0,0-1.9-1.12l-16.21,8.11A1.57,1.57,0,0,0,101,74.06Z" fill="#ff5454"></path><polyline points="115.23 86.82 111.88 94.4 108.9 89.1" fill="#ff5454"></polyline><path d="M113.71,72.29a1.53,1.53,0,0,1,2.35,1.18c.29,1.55-.36,3.53-1,5.21a54.15,54.15,0,0,1-2.31,5.19c-.08.16-1.14,2.34-1.28,2.41s-.32-.17-.44-.23c-.37-.2-.73-.41-1.08-.65a8.43,8.43,0,0,1-3.34-3.56,5,5,0,0,1,.38-5.42,3.38,3.38,0,0,1,1-.86,2,2,0,0,1,2-.08,3.4,3.4,0,0,1,1.17,2.1,12.07,12.07,0,0,1,1.3-4.1A3.07,3.07,0,0,1,113.71,72.29Z" fill="#fff"></path><path d="M251.79,192.42l.1-.05a.45.45,0,0,1,.6.23,5.54,5.54,0,0,1,.61,3q0,.53-.07,1.12c-.12,1.1-.22,2.2-.32,3.29,0,0,0,.05,0,.08s0,.1,0,.17l.17-.12,1.7-1.15,1.7-1.16c.23-.15.45-.25.64-.13a1.23,1.23,0,0,1,.37,1.08,3.89,3.89,0,0,1-.35,1.47l-.36.76a3.11,3.11,0,0,1,.42.2,1.29,1.29,0,0,1,.34,1.09,3.8,3.8,0,0,1-.33,1.42,3.91,3.91,0,0,1-.38.63c-.09.14-.19.24-.3.39l.22.44a2,2,0,0,1,.15.86,3.41,3.41,0,0,1-.71,2c-.13.15-.27.28-.42.43.06.19.11.35.16.53a2.36,2.36,0,0,1,.08.74,3.52,3.52,0,0,1-.68,2l0,0a1.22,1.22,0,0,1-.19.16l-4.71,3.23c-.46.31-.86.35-1.19,0a.29.29,0,0,0-.16-.09c-.13,0-.16-.14-.15-.4q0-2,.09-4t.09-4a1.1,1.1,0,0,1,.12-.52,9,9,0,0,0,.71-2.07c.49-2,1-3.91,1.5-5.85a8.41,8.41,0,0,0,.3-2q0-.22,0-.43c0-.91,0-1.84-.06-2.75a.52.52,0,0,1,.09-.32,1.51,1.51,0,0,1,.15-.19Z" fill="#fff"></path><path d="M257.24,204.45a.58.58,0,0,0-.07.39,5.93,5.93,0,0,1-.77,3.71.52.52,0,0,0-.08.35c.1,1.55-.58,3.45-1.45,4l-2.44,1.67L250,216.27a1.08,1.08,0,0,1-1.28.08l-.11-.08c0,.2,0,.36,0,.52a2.08,2.08,0,0,1-.66,1.63l-3.17,2.16c-.37.25-.62-.07-.6-.78l.26-11.55a2.09,2.09,0,0,1,.65-1.62l3.18-2.17c.28-.19.49-.11.58.34l0,.11,0,0q.07-.22.13-.43l1.76-6.86a5.28,5.28,0,0,0,.12-1.53c0-1.08,0-2.15-.06-3.23l.06-.27a3,3,0,0,1,.91-1.27.66.66,0,0,1,.78-.05,3.4,3.4,0,0,1,1,2.3,12.24,12.24,0,0,1,0,3.19c-.07.64-.12,1.28-.19,2l.17-.12,2.85-1.94a.71.71,0,0,1,1.06.07,3.78,3.78,0,0,1,.19,3l-.12.41a6,6,0,0,1,.28.81A5.77,5.77,0,0,1,257.24,204.45Zm-.26-.75a3.83,3.83,0,0,0,.33-1.43,1.29,1.29,0,0,0-.34-1.09,3.1,3.1,0,0,0-.42-.2l.36-.76a3.85,3.85,0,0,0,.35-1.47,1.23,1.23,0,0,0-.37-1.08c-.19-.11-.41,0-.64.13l-1.7,1.16-1.7,1.15-.17.12c0-.07,0-.12,0-.17s0-.05,0-.08c.11-1.09.2-2.19.32-3.29q.06-.59.07-1.12a5.54,5.54,0,0,0-.61-3,.45.45,0,0,0-.6-.23l-.1.05-.16.14a1.51,1.51,0,0,0-.15.19.47.47,0,0,0-.09.27c0,1,0,1.89.06,2.8q0,.22,0,.43a8.41,8.41,0,0,1-.3,2c-.51,1.94-1,3.9-1.5,5.85a9,9,0,0,1-.71,2.07,1.1,1.1,0,0,0-.12.52q0,2-.09,4t-.09,4c0,.27,0,.4.15.41a.33.33,0,0,1,.16.09c.34.32.74.28,1.19,0l1.57-1.08,3.14-2.14a1.19,1.19,0,0,0,.19-.16l0,0a3.5,3.5,0,0,0,.68-2,2.36,2.36,0,0,0-.08-.74c0-.18-.1-.34-.15-.52l.42-.44a3.41,3.41,0,0,0,.71-2,2,2,0,0,0-.15-.86l-.22-.44c.11-.14.21-.25.3-.39a4.2,4.2,0,0,0,.38-.62" fill="#03476d"></path><polyline points="165.19 85.22 165.19 143.61 197.89 162.32 234.81 140.5 234.81 82.11" fill="#af1528"></polyline><polygon points="165.19 85.22 203.13 63.61 234.81 82.11 197.89 103.92 165.19 85.22" fill="#c41a26"></polygon><polygon points="197.89 103.92 197.89 162.32 234.81 140.5 234.81 82.11 197.89 103.92" fill="#c41a26"></polygon><path d="M211.56,83a2.29,2.29,0,0,0,.11-.36A2.29,2.29,0,0,1,211.56,83Z" fill="#cc2127"></path><path d="M211.56,83a3.27,3.27,0,0,1-1.36,1.5A3.27,3.27,0,0,0,211.56,83Z" fill="#cc2127"></path><path d="M189.15,81a6.52,6.52,0,0,1,2.35-2.22A6.53,6.53,0,0,0,189.15,81Z" fill="#cc2127"></path><g style="isolation: isolate;"><path d="M192.1,78.48l.23-.11.47-.22q.61-.27,1.31-.52a18.9,18.9,0,0,1,7.4-.91,16.56,16.56,0,0,1,4.32.82c.57.2,1.12.41,1.63.63a11.64,11.64,0,0,1,2.87,1.69c1,.86,1.56,1.77,1.34,2.76a3.14,3.14,0,0,1-1.65,2l-.31.17-.16.08a7.63,7.63,0,0,1-2.82.69c-.25,0-.5,0-.76,0l1,.58c.82.47,1.67.93,2.43,1.41a7.71,7.71,0,0,1,2.19,2.11c.11.15.2.3.31.46a.14.14,0,0,1,0,.07.07.07,0,0,1,0,.06.79.79,0,0,1-.38,0,28.2,28.2,0,0,1-4.22-1.34l-.53-.24c-.75-.36-1.42-.75-2.12-1.13l-4.77-2.61a1,1,0,0,0-.28-.08,8.87,8.87,0,0,1-4-1.33c-.53-.38-.79-.8-.63-1.26a1,1,0,0,1,.36-.46,1.94,1.94,0,0,1,.29-.18,3.3,3.3,0,0,1,1.19-.33,5,5,0,0,1,1.9.21,7.33,7.33,0,0,1,1.74.8L203,83.83a3.86,3.86,0,0,0,1.79.53,4.84,4.84,0,0,0,2-.25l.37-.16c.95-.5,1.11-1.08.85-1.71a4.25,4.25,0,0,0-1.7-1.66,15.56,15.56,0,0,0-2.76-1.32,12.51,12.51,0,0,0-2.83-.72,11.28,11.28,0,0,0-5.09.42,12.27,12.27,0,0,0-1.22.48l-.36.18-.11.06a3.87,3.87,0,0,0-2.12,2.26c-.33,1.24.53,2.32,2.38,3.23l.38.18a10,10,0,0,0,1.93.6,8.78,8.78,0,0,0,2.19.18,1.72,1.72,0,0,1,1,.22c.27.17.57.32.85.48s.26.29,0,.41l-.2.08a10.2,10.2,0,0,1-3.92.27,14.92,14.92,0,0,1-4.27-1,9.52,9.52,0,0,1-1.3-.68c-2-1.28-2.74-2.72-2.1-4.27l.13-.28.08-.15.07-.12a6.53,6.53,0,0,1,2.35-2.22Z" fill="#fff"></path><path d="M192,81.5l.12-.23h0Z" fill="#cc2127"></path><path d="M192.13,81.27h0l0,0Z" fill="#cc2127"></path><path d="M192.15,81.23l.18-.26Z" fill="#cc2127"></path><path d="M192.33,81a3.83,3.83,0,0,1,.55-.57h0A3.84,3.84,0,0,0,192.33,81Z" fill="#cc2127"></path><path d="M192.87,80.41h0a5.7,5.7,0,0,1,.81-.57A5.71,5.71,0,0,0,192.87,80.41Z" fill="#cc2127"></path></g><path d="M220.26,113A1.81,1.81,0,0,1,223,114.4c.34,1.85-.43,4.2-1.18,6.18a62,62,0,0,1-2.73,6.14c-.09.19-1.35,2.78-1.51,2.86s-.39-.2-.52-.27c-.43-.24-.86-.5-1.28-.76a10,10,0,0,1-4-4.22,6,6,0,0,1,.45-6.42,4,4,0,0,1,1.22-1,2.36,2.36,0,0,1,2.41-.09,4,4,0,0,1,1.39,2.48,14.25,14.25,0,0,1,1.54-4.85A3.63,3.63,0,0,1,220.26,113Z" fill="#fff"></path><path d="M204.36,168.17a20.36,20.36,0,0,0-5.93,8.69c-2.08,5.75,3.12,15.15,3.12,15.15l8.1-6.4" fill="#ff8f6f"></path><path d="M203.46,244.19l-2.2-1.21.55-3.14s3.27.31,3.56,1.47" fill="#003b94"></path><path d="M204.29,244.14c.49-.3,1-.57,1.52-.85,1.27-.69,3.1-1.41,3.88-2.72a1.52,1.52,0,0,0-.1-1.71c-1.16-1.39-3.67.9-5-.65-.26-.31-.37-5.14-.37-5.14l-4.9,1.32s-.83,9.72-.74,10.32,1.78,1.18,1.78,1.18a4.34,4.34,0,0,0,1.41-.55c.51-.37,0-4.93.7-4.29s.94,3.13.94,3.13A3.37,3.37,0,0,0,204.29,244.14Z" fill="#68e1fd"></path><path d="M212.84,248.88l-2.2-1.21.55-3.14s3.27.31,3.56,1.47" fill="#003b94"></path><path d="M213.66,248.84c.49-.3,1-.57,1.52-.85,1.27-.69,3.1-1.41,3.88-2.72a1.52,1.52,0,0,0-.1-1.71c-1.16-1.39-3.67.9-5-.65-.26-.31-.37-5.14-.37-5.14l-4.9,1.32s-.83,9.72-.74,10.32,1.78,1.18,1.78,1.18a4.34,4.34,0,0,0,1.41-.55c.51-.37,0-4.93.7-4.29s.94,3.13.94,3.13A3.37,3.37,0,0,0,213.66,248.84Z" fill="#68e1fd"></path><path d="M196.88,217.29l-1.42,19.3s2.29,3.17,10,1.41h0l.07-13" fill="#3e2928"></path><path d="M205.81,221.12c-.17,1.66,0,20,0,20s2.13,4,11.42,0l-.13-15.57" fill="#3e2928"></path><path d="M196.16,223.67c.63.43.85-1.81,1.51-1.43a37.62,37.62,0,0,0,7.61,3.36l.06,0a.52.52,0,0,1,.7.26,40.22,40.22,0,0,0,5,1.13c2.17.35,4-1.26,6.19-1.37,0-8.52,0-32.8-3.59-37.92l-10.73-3.59c0,.89-5.21,6.87-5.09,14.15a165.47,165.47,0,0,1-1.11,18.53C196.69,217.23,196.18,223.2,196.16,223.67Z" fill="#3e2928"></path><path d="M214.63,177.9l-1,9.78s-8,.32-11.46-2.06v-8.29" fill="#ff8f6f"></path><path d="M224.82,171.46l-.82,1.12a26.83,26.83,0,0,0,1.15-2.79c.23-.65-.81-.91-1-.26l-.12.33q.15-.52.28-1a.54.54,0,0,0-1-.26,27.87,27.87,0,0,1-.81,2.67,19,19,0,0,0,.38-2.36c.07-.68-1-.66-1.07,0a17,17,0,0,1-.48,2.67q0-.46-.08-.92a.54.54,0,0,0-.22-.39c0-.12-.06-.24-.11-.36a.54.54,0,0,0-1.05.16l-.07,4a4.81,4.81,0,0,1-.75,1.15,18.69,18.69,0,0,1,1.49,1.17,15.4,15.4,0,0,1,1.22,1.17q.52-.64,1-1.31a.58.58,0,0,0,.1-.11q1.44-2.12,3-4.18C226.16,171.44,225.22,170.92,224.82,171.46Z" fill="#ffb5a9"></path><path d="M209.55,169s3.78,1,5.32,3.47a43.26,43.26,0,0,1,2.53,5.23l2.79-4.34s3.39,1,4.74,2.71c0,0-4,8.8-7.53,9.55s-7.22-5.21-7.22-5.21-.77,2.47-.62-.17" fill="#ff8f6f"></path><path d="M212,178.38a7.67,7.67,0,0,1-2.4-3.41c-.45-1.55.12-2.9.65-4.34a14,14,0,0,0,1-4.47c0-1.51-.13-3-.23-4.51a.43.43,0,0,1,0-.19c-.5-1.7-1.54-3.13-3.58-3.3-5.28-.45-5.58,5.4-5.54,7.78s.29,4-1.46,5-3,3.6-1.35,5.71.17,1.34-.94,3.21-.83,4.21,1.46,5.06,12.92-.74,13.9-1.73a2,2,0,0,0,.5-1.44A5.57,5.57,0,0,0,212,178.38Z" fill="#007f68"></path></svg>