<svg id="Capa_1" enable-background="new 0 0 511.996 511.996" height="512" viewBox="0 0 511.996 511.996" width="512" xmlns="http://www.w3.org/2000/svg"><g><path d="m225.268 160.421c0-4.143-3.358-7.5-7.5-7.5h-57.345c-4.142 0-7.5 3.357-7.5 7.5v114.69c0 4.143 3.358 7.5 7.5 7.5h57.345c4.142 0 7.5-3.357 7.5-7.5zm-15 107.19h-42.345v-61.461h42.345zm0-76.461h-42.345v-23.23h42.345z"/><path d="m122.193 344.071h-57.345c-4.142 0-7.5 3.357-7.5 7.5v114.69c0 4.143 3.358 7.5 7.5 7.5h57.345c4.142 0 7.5-3.357 7.5-7.5v-114.69c0-4.142-3.358-7.5-7.5-7.5zm-7.5 114.691h-42.345v-61.461h42.345zm0-76.461h-42.345v-23.229h42.345z"/><path d="m217.768 344.071h-57.345c-4.142 0-7.5 3.357-7.5 7.5v114.69c0 4.143 3.358 7.5 7.5 7.5h57.345c4.142 0 7.5-3.357 7.5-7.5v-114.69c0-4.142-3.358-7.5-7.5-7.5zm-7.5 114.691h-42.345v-61.461h42.345zm0-76.461h-42.345v-23.229h42.345z"/><path d="m26.618 419.186c4.142 0 7.5-3.357 7.5-7.5v-278.042l107.189-71.46 107.19 71.461v160.651c0 4.143 3.358 7.5 7.5 7.5s7.5-3.357 7.5-7.5v-160.652l107.19-71.461 107.19 71.46v48.652c0 4.143 3.358 7.5 7.5 7.5s7.5-3.357 7.5-7.5l-.027-98.354c0-2.508-1.253-4.85-3.34-6.24l-114.662-76.441c-2.52-1.68-5.802-1.68-8.32 0l-110.529 73.687-110.531-73.687c-2.52-1.68-5.802-1.68-8.32 0l-114.69 76.461c-2.086 1.391-3.34 3.732-3.34 6.24v327.726c0 4.142 3.358 7.499 7.5 7.499zm236.88-331.211 107.19-71.461 107.163 71.441v27.639l-103.003-68.668c-2.52-1.68-5.801-1.68-8.32 0l-103.03 68.687zm-229.38 0 107.19-71.461 107.162 71.441v27.638l-103.002-68.667c-2.52-1.68-5.801-1.68-8.32 0l-103.03 68.687z"/><path d="m485.378 207.486c-4.142 0-7.5 3.357-7.5 7.5v282.01h-214.38v-170.01c0-4.142-3.358-7.5-7.5-7.5s-7.5 3.358-7.5 7.5v170.01h-214.38v-52.62c0-4.143-3.358-7.5-7.5-7.5s-7.5 3.357-7.5 7.5v60.12c0 4.143 3.358 7.5 7.5 7.5h458.76c4.142 0 7.5-3.357 7.5-7.5v-289.51c0-4.142-3.358-7.5-7.5-7.5z"/><path d="m359.073 160.421c0-4.143-3.358-7.5-7.5-7.5h-57.345c-4.142 0-7.5 3.357-7.5 7.5v114.69c0 4.143 3.358 7.5 7.5 7.5h57.345c4.142 0 7.5-3.357 7.5-7.5zm-15 107.19h-42.345v-61.461h42.345zm0-76.461h-42.345v-23.23h42.345z"/><path d="m454.649 160.421c0-4.143-3.358-7.5-7.5-7.5h-57.345c-4.142 0-7.5 3.357-7.5 7.5v114.69c0 4.143 3.358 7.5 7.5 7.5h57.345c4.142 0 7.5-3.357 7.5-7.5zm-15 107.19h-42.345v-61.461h42.345zm0-76.461h-42.345v-23.23h42.345z"/><path d="m351.573 344.071h-57.345c-4.142 0-7.5 3.357-7.5 7.5v114.69c0 4.143 3.358 7.5 7.5 7.5h57.345c4.142 0 7.5-3.357 7.5-7.5v-114.69c0-4.142-3.357-7.5-7.5-7.5zm-7.5 114.691h-42.345v-61.461h42.345zm0-76.461h-42.345v-23.229h42.345z"/><path d="m447.149 344.071h-57.345c-4.142 0-7.5 3.357-7.5 7.5v114.69c0 4.143 3.358 7.5 7.5 7.5h57.345c4.142 0 7.5-3.357 7.5-7.5v-114.69c0-4.142-3.358-7.5-7.5-7.5zm-7.5 114.691h-42.345v-61.461h42.345zm0-76.461h-42.345v-23.229h42.345z"/><path d="m129.693 160.421c0-4.143-3.358-7.5-7.5-7.5h-57.345c-4.142 0-7.5 3.357-7.5 7.5v114.69c0 4.143 3.358 7.5 7.5 7.5h57.345c4.142 0 7.5-3.357 7.5-7.5zm-15 107.19h-42.345v-61.461h42.345zm0-76.461h-42.345v-23.23h42.345z"/></g></svg>